<svg version="1.1" id="Layer_1" xmlns="http://www.w3.org/2000/svg" xmlns:xlink="http://www.w3.org/1999/xlink" x="0px" y="0px"
	 viewBox="61 202 734 390" style="enable-background:new 61 202 734 390;" xml:space="preserve">
<path d="M763,397c0,15.1-39.9,21.1-46.4,35.1c-5.9,12.9,16.8,48,6,59.6c-9.4,10.2-45.1-10.9-57.8-2c-11.4,8-5,50.5-18.7,57.3
	c-12.5,6.2-40.3-25.4-54.5-20.4c-13.2,4.7-16.5,47.7-31,51.3c-13.7,3.4-35.1-33.3-49.8-31c-14,2.2-24.1,44-38.7,45.1
	c-14.1,1.1-30-38.7-44.6-38.7S397,593.1,382.9,592c-14.7-1.1-24.8-42.9-38.8-45.1c-14.6-2.3-36.1,34.4-49.8,31
	c-14.5-3.6-17.7-46.5-31-51.3c-14.2-5.1-42,26.6-54.5,20.4c-13.7-6.8-7.4-49.2-18.7-57.3c-12.7-9-48.4,12.2-57.8,1.9
	c-10.7-11.6,12-46.7,6.1-59.6c-6.4-14-46.4-20-46.4-35.1s39.9-21.1,46.4-35.1c5.9-12.9-16.8-48-6.1-59.6c9.4-10.2,45.1,10.9,57.8,2
	c11.4-8,5-50.5,18.7-57.3c12.5-6.2,40.3,25.4,54.5,20.4c13.2-4.7,16.5-47.7,30.9-51.2c13.7-3.4,35.1,33.3,49.8,31
	c14-2.2,24.1-44,38.7-45.1c14.1-1.1,30,38.7,44.6,38.7s30.5-39.7,44.6-38.7c14.7,1.1,24.8,42.9,38.8,45.1
	c14.6,2.3,36.1-34.4,49.8-31c14.5,3.6,17.7,46.5,31,51.2c14.2,5.1,42-26.6,54.5-20.4c13.7,6.8,7.3,49.3,18.7,57.3
	c12.7,8.9,48.4-12.2,57.8-2c10.7,11.6-12,46.7-6.1,59.6C723.1,375.9,763,381.9,763,397z"/>
</svg>
