<svg version="1.1" id="Layer_1" xmlns="http://www.w3.org/2000/svg" xmlns:xlink="http://www.w3.org/1999/xlink" x="0px" y="0px"
	 viewBox="-68 193 474 408" style="enable-background:new -68 193 474 408;" xml:space="preserve">
<path d="M405,397c0,15.8-28.1,22-32.6,36.5c-4.2,13.4,11.8,50,4.2,62c-6.6,10.6-31.7-11.4-40.7-2c-8,8.4-3.5,52.5-13.2,59.6
	c-8.8,6.5-28.4-26.5-38.4-21.2c-9.3,4.9-11.6,49.6-21.8,53.4c-9.6,3.5-24.7-34.7-35-32.3c-9.8,2.3-17,45.8-27.3,46.9
	c-9.9,1.1-21.1-40.3-31.4-40.3c-10.3,0-21.4,41.4-31.4,40.3c-10.3-1.2-17.4-44.6-27.3-46.9c-10.3-2.4-25.4,35.8-35,32.3
	c-10.2-3.8-12.5-48.4-21.8-53.4c-10-5.3-29.6,27.7-38.4,21.2C5.6,546.1,10,501.9,2,493.5c-8.9-9.3-34,12.7-40.7,2
	c-7.5-12.1,8.4-48.6,4.3-62C-38.9,418.9-67,412.8-67,397s28.1-22,32.6-36.5c4.2-13.4-11.8-50-4.3-62c6.6-10.7,31.7,11.4,40.7,2
	c8-8.3,3.5-52.5,13.2-59.6c8.8-6.5,28.4,26.5,38.4,21.2c9.3-4.9,11.6-49.6,21.8-53.3c9.6-3.5,24.7,34.7,35,32.3
	c9.8-2.3,17-45.8,27.3-46.9c9.9-1.1,21.1,40.3,31.4,40.3s21.5-41.4,31.4-40.3c10.3,1.2,17.4,44.6,27.3,46.9
	c10.3,2.4,25.4-35.8,35-32.3c10.2,3.7,12.5,48.4,21.8,53.3c10,5.3,29.6-27.7,38.4-21.2c9.6,7.1,5.2,51.3,13.2,59.6
	c8.9,9.3,34-12.7,40.7-2c7.5,12.1-8.4,48.6-4.3,62C376.9,375.1,405,381.2,405,397z"/>
</svg>
